<?xml version="1.0"?>
<svg width="314" height="314" xmlns="http://www.w3.org/2000/svg" xmlns:svg="http://www.w3.org/2000/svg" preserveAspectRatio="xMidYMid meet" version="1.0">
 <g class="layer">
  <title>Layer 1</title>
  <g fill="#000000" id="fonsecuritas_logo" transform="matrix(0.1 0 0 -0.1 0 0)">
   <path d="m800.55,-327.4l-131,-323l-318,-134c-176,-74 -321,-136 -323,-138c-6,-5 242,-584 250,-584c4,0 169,68 366,151c197,82 397,166 444,185l86,35l53,142c29,78 56,145 60,150c3,4 67,-18 141,-48c73,-30 143,-55 154,-55c21,0 185,62 185,70c0,3 -62,151 -138,329l-137,323l-260,105c-143,57 -269,106 -281,109c-19,5 -32,-22 -151,-317z" fill="#ffffff" id="svg_2"/>
   <path d="m1923,-110.06c-146,-62 -273,-116 -283,-120c-16,-6 -16,-9 -1,-44c37,-87 153,-364 246,-588c55,-132 105,-249 112,-260c7,-11 31,-26 52,-34c121,-42 244,-94 244,-103c0,-6 -25,-73 -56,-149l-56,-139l32,-82c18,-46 36,-87 41,-92c7,-8 625,245 653,268c14,12 233,553 225,559c-2,2 -149,62 -326,133l-321,129l-134,315c-79,186 -140,316 -149,317c-8,2 -133,-48 -279,-110z" fill="#ffffff" id="svg_3"/>
   <path d="m541,-1541.06c-172,-74 -317,-137 -321,-142c-10,-11 -220,-535 -220,-549c0,-5 144,-68 320,-138c176,-70 323,-133 328,-139c4,-7 66,-151 139,-322c85,-201 137,-309 145,-307c41,9 568,238 568,248c0,6 -50,130 -111,275c-61,145 -142,341 -181,434c-38,94 -75,175 -81,181c-7,6 -72,33 -146,60c-73,27 -135,54 -138,60c-2,6 21,75 51,153l56,142l-36,89c-20,50 -41,90 -48,89c-6,-1 -152,-61 -325,-134z" fill="#ffffff" id="svg_7"/>
   <path d="m2441,-1804.06l-443,-187l-55,-145c-30,-80 -56,-146 -58,-148c-1,-2 -65,22 -141,52c-76,31 -145,56 -153,56c-26,0 -181,-63 -181,-74c0,-10 265,-644 272,-651c2,-2 127,-53 278,-114c211,-86 277,-108 284,-99c4,8 65,155 135,327l126,314l310,132c171,72 315,134 321,138c13,7 -224,579 -242,583c-5,1 -209,-82 -453,-184z" fill="#ffffff" id="svg_8"/>
  </g>
 </g>
</svg>